# xmcd
#
# Track frame offsets:
#	150
#	17515
#	31691
#	42354
#	53001
#	69807
#	81302
#	97089
#	116523
#	135605
#	150069
#	167210
#	177718
#	191426
#	208837
#
# Disc length: 3028
#
# Revision: 1
# Processed by: cddbd v1.5.1PL0 Copyright (c) Steve Scherf et al.
# Submitted via: CDex 1.51
# Normalized: r0:DSETVAR1
#
DISCID=be0bd20f
DTITLE=Various Artist - Country Got Soul Volume 2
DYEAR=2004
DGENRE=Country
TTITLE0=Tony Joe White - High Sheriff Of Calhoun Parish
TTITLE1=Sandra Rhodes - Sowed Love And Reaped The Heartache
TTITLE2=Wayne Carson - Soul Deep
TTITLE3=Townes Van Zant - Black Widow Blues
TTITLE4=Larry Jon Wilson - Ohoopee River Bottomland
TTITLE5=Shirl Milete - Big Country Blues
TTITLE6=Jim Ford - Harland County
TTITLE7=Bobbie Gentry - Fancy
TTITLE8=Eddie Hinton - I Can't Be Me
TTITLE9=Travis Wammack - Easy Evil
TTITLE10=Donnie Fritts - Muscle Shoals
TTITLE11=Eric Quincy Tate - Stone Head Blues Band
TTITLE12=Rob Galbraith - Corner Of Spit And Whittle
TTITLE13=Bonnie Bramlett - Your Kind Of Kindness
TTITLE14=Dan Penn and Chuck Prophet - Heavy Duty
EXTD=YEAR: 2004
EXTT0=
EXTT1=
EXTT2=
EXTT3=
EXTT4=
EXTT5=
EXTT6=
EXTT7=
EXTT8=
EXTT9=
EXTT10=
EXTT11=
EXTT12=
EXTT13=
EXTT14=
PLAYORDER=
